<svg width="533" height="543" viewBox="0 0 533 543" fill="none" xmlns="http://www.w3.org/2000/svg">
<path fill-rule="evenodd" clip-rule="evenodd" d="M475.604 187.79C467.12 186.538 459.605 181.647 455.027 174.395C442.6 154.713 427.201 136.967 409.355 121.868C402.803 116.324 399 108.195 398.942 99.6132C398.884 91.0311 402.578 82.8517 409.054 77.2202C423.761 64.432 443.908 57.9173 464.755 61.1781C502.235 67.0405 527.865 102.176 522.003 139.655C519.4 156.298 510.977 170.665 499.173 180.908C492.695 186.528 484.088 189.041 475.604 187.79ZM192.428 67.3093C189.752 75.4641 183.648 82.0434 175.716 85.3215C154.112 94.2502 134.029 106.446 116.185 121.393C109.611 126.9 100.961 129.263 92.4998 127.864C84.0389 126.465 76.61 121.443 72.1588 114.113C64.0476 100.755 60.415 84.5037 63.018 67.8625C68.8804 30.3831 104.016 4.75241 141.495 10.6148C162.341 13.8754 179.536 26.2302 189.636 42.8974C194.084 50.2376 195.103 59.1544 192.428 67.3093ZM450.052 120.056C454.367 124.667 458.51 129.433 462.471 134.341C468.744 142.114 474.563 150.246 479.897 158.693C486.653 152.83 491.454 144.64 492.944 135.11C493.415 132.102 493.531 129.121 493.323 126.208C492.1 109.085 479.69 94.3461 462.403 90.6425C461.68 90.4876 460.949 90.3521 460.21 90.2365C448.294 88.3727 436.793 92.0757 428.353 99.4148C435.996 105.881 443.239 112.776 450.052 120.056ZM121.328 80.979C126.599 77.5147 131.998 74.2421 137.515 71.1693C146.226 66.3175 155.229 61.9636 164.482 58.1397C158.686 48.5745 148.865 41.5369 136.95 39.6732C136.21 39.5575 135.471 39.4632 134.735 39.3899C117.145 37.6395 100.829 47.8829 94.436 63.8118C93.3479 66.5228 92.5471 69.3984 92.0764 72.4077C90.5859 81.9369 92.6558 91.2011 97.2985 98.8466C104.957 92.4315 112.981 86.4649 121.328 80.979ZM234.502 474.606C333.224 490.047 425.771 422.536 441.213 323.814C456.655 225.092 389.143 132.544 290.421 117.103C191.699 101.661 99.1518 169.173 83.7101 267.895C68.2683 366.616 135.78 459.164 234.502 474.606ZM229.957 503.664C344.727 521.616 452.32 443.129 470.271 328.359C488.223 213.589 409.737 105.996 294.966 88.0443C180.196 70.0923 72.6036 148.579 54.6516 263.349C48.6037 302.015 53.5014 339.866 67.0447 373.749L39.5792 412.318C20.5553 439.033 36.2961 476.429 68.6984 481.497L84.9824 484.044C104.407 487.083 122.852 476.95 131.229 460.276C158.873 482.383 192.481 497.802 229.957 503.664ZM107.12 437.677L106.329 442.729C105.074 450.753 97.5519 456.241 89.5276 454.986L73.2436 452.439C62.4428 450.749 57.1959 438.284 63.5372 429.379L81.8491 403.664C89.1106 415.814 97.5796 427.214 107.12 437.677ZM373.999 529.251C354.574 526.213 340.104 510.932 337.219 492.496C347.557 488.555 357.539 483.815 367.078 478.338L366.287 483.391C365.032 491.415 370.52 498.938 378.544 500.193L394.828 502.74C405.629 504.429 414.431 494.162 411.112 483.746L401.527 453.667C409.869 446.324 417.643 438.313 424.759 429.701L439.136 474.816C449.093 506.064 422.685 536.866 390.283 531.798L373.999 529.251Z" fill="#FC7309"/>
<path fill-rule="evenodd" clip-rule="evenodd" d="M475.604 187.79C467.12 186.538 459.605 181.647 455.027 174.395C442.6 154.713 427.201 136.967 409.355 121.868C402.803 116.324 399 108.195 398.942 99.6132C398.884 91.0311 402.578 82.8517 409.054 77.2202C423.761 64.432 443.908 57.9173 464.755 61.1781C502.235 67.0405 527.865 102.176 522.003 139.655C519.4 156.298 510.977 170.665 499.173 180.908C492.695 186.528 484.088 189.041 475.604 187.79ZM192.428 67.3093C189.752 75.4641 183.648 82.0434 175.716 85.3215C154.112 94.2502 134.029 106.446 116.185 121.393C109.611 126.9 100.961 129.263 92.4998 127.864C84.0389 126.465 76.61 121.443 72.1588 114.113C64.0476 100.755 60.415 84.5037 63.018 67.8625C68.8804 30.3831 104.016 4.75241 141.495 10.6148C162.341 13.8754 179.536 26.2302 189.636 42.8974C194.084 50.2376 195.103 59.1544 192.428 67.3093ZM450.052 120.056C454.367 124.667 458.51 129.433 462.471 134.341C468.744 142.114 474.563 150.246 479.897 158.693C486.653 152.83 491.454 144.64 492.944 135.11C493.415 132.102 493.531 129.121 493.323 126.208C492.1 109.085 479.69 94.3461 462.403 90.6425C461.68 90.4876 460.949 90.3521 460.21 90.2365C448.294 88.3727 436.793 92.0757 428.353 99.4148C435.996 105.881 443.239 112.776 450.052 120.056ZM121.328 80.979C126.599 77.5147 131.998 74.2421 137.515 71.1693C146.226 66.3175 155.229 61.9636 164.482 58.1397C158.686 48.5745 148.865 41.5369 136.95 39.6732C136.21 39.5575 135.471 39.4632 134.735 39.3899C117.145 37.6395 100.829 47.8829 94.436 63.8118C93.3479 66.5228 92.5471 69.3984 92.0764 72.4077C90.5859 81.9369 92.6558 91.2011 97.2985 98.8466C104.957 92.4315 112.981 86.4649 121.328 80.979ZM234.502 474.606C333.224 490.047 425.771 422.536 441.213 323.814C456.655 225.092 389.143 132.544 290.421 117.103C191.699 101.661 99.1518 169.173 83.7101 267.895C68.2683 366.616 135.78 459.164 234.502 474.606ZM229.957 503.664C344.727 521.616 452.32 443.129 470.271 328.359C488.223 213.589 409.737 105.996 294.966 88.0443C180.196 70.0923 72.6036 148.579 54.6516 263.349C48.6037 302.015 53.5014 339.866 67.0447 373.749L39.5792 412.318C20.5553 439.033 36.2961 476.429 68.6984 481.497L84.9824 484.044C104.407 487.083 122.852 476.95 131.229 460.276C158.873 482.383 192.481 497.802 229.957 503.664ZM107.12 437.677L106.329 442.729C105.074 450.753 97.5519 456.241 89.5276 454.986L73.2436 452.439C62.4428 450.749 57.1959 438.284 63.5372 429.379L81.8491 403.664C89.1106 415.814 97.5796 427.214 107.12 437.677ZM373.999 529.251C354.574 526.213 340.104 510.932 337.219 492.496C347.557 488.555 357.539 483.815 367.078 478.338L366.287 483.391C365.032 491.415 370.52 498.938 378.544 500.193L394.828 502.74C405.629 504.429 414.431 494.162 411.112 483.746L401.527 453.667C409.869 446.324 417.643 438.313 424.759 429.701L439.136 474.816C449.093 506.064 422.685 536.866 390.283 531.798L373.999 529.251Z" fill="#FC7309"/>
<ellipse cx="183.024" cy="322.52" rx="11.9191" ry="8.74066" transform="rotate(-81.11 183.024 322.52)" fill="#FC7309"/>
<ellipse cx="278.802" cy="337.501" rx="11.9191" ry="8.74066" transform="rotate(-81.11 278.802 337.501)" fill="#FC7309"/>
<path d="M328.742 76.2922C345.559 75.9307 353.202 79.7522 364.406 92.0746" stroke="#FC7309" stroke-width="7" stroke-linecap="round"/>
<path d="M345.026 66.4997C361.761 68.1902 368.882 72.9147 378.501 86.5105" stroke="#FC7309" stroke-width="7" stroke-linecap="round"/>
<path d="M96.0264 498.665C109.498 498.955 115.621 495.893 124.596 486.022" stroke="#FC7309" stroke-width="7" stroke-linecap="round"/>
<path d="M109.073 506.51C122.479 505.155 128.183 501.371 135.889 490.479" stroke="#FC7309" stroke-width="7" stroke-linecap="round"/>
</svg>
