<svg width="465" height="477" viewBox="0 0 465 477" fill="none" xmlns="http://www.w3.org/2000/svg">
<path fill-rule="evenodd" clip-rule="evenodd" d="M426.163 123.414C417.588 123.489 409.407 119.817 403.763 113.361C388.444 95.8355 370.487 80.6822 350.522 68.5221C343.193 64.0576 338.179 56.6143 336.795 48.1441C335.412 39.674 337.797 31.0221 343.325 24.4575C355.879 9.55003 374.778 8.96454e-05 395.878 8.96454e-05C433.813 8.96454e-05 464.566 30.7526 464.566 68.6877C464.566 85.5327 458.464 101.029 448.385 112.973C442.854 119.526 434.738 123.34 426.163 123.414ZM127.77 48.1424C126.386 56.6128 121.372 64.0564 114.042 68.5209C94.0773 80.6809 76.1203 95.834 60.8008 113.359C55.1567 119.816 46.9756 123.487 38.4001 123.413C29.8246 123.338 21.7089 119.524 16.1784 112.969C6.10042 101.026 0 85.5312 0 68.6876C0 30.7525 30.7525 0 68.6876 0C89.787 0 108.685 9.54907 121.239 24.4553C126.767 31.0199 129.153 39.672 127.77 48.1424ZM390.451 60.4433C395.427 64.332 400.256 68.4 404.928 72.6375C412.327 79.3473 419.333 86.4823 425.907 94.0037C431.677 87.1673 435.154 78.3336 435.154 68.6877C435.154 65.6432 434.807 62.6796 434.152 59.8342C430.298 43.1058 415.759 30.4617 398.107 29.4741C397.369 29.4328 396.626 29.4119 395.878 29.4119C383.818 29.4119 373.027 34.8477 365.822 43.403C374.372 48.6108 382.595 54.3036 390.451 60.4433ZM59.6367 72.6355C64.3089 68.3983 69.1376 64.3306 74.1132 60.4422C81.9695 54.3024 90.192 48.6096 98.7423 43.4017C91.5376 34.8471 80.7474 29.4118 68.6876 29.4118C67.9384 29.4118 67.1941 29.4327 66.4552 29.4741C48.8062 30.4631 34.2696 43.1048 30.4146 59.8303C29.7585 62.6769 29.4118 65.6418 29.4118 68.6876C29.4118 78.3327 32.8884 87.1657 38.6569 94.0019C45.2318 86.4804 52.2379 79.3454 59.6367 72.6355ZM232.281 444.044C332.203 444.044 413.206 363.041 413.206 263.119C413.206 163.197 332.203 82.194 232.281 82.194C132.359 82.194 51.3559 163.197 51.3559 263.119C51.3559 363.041 132.359 444.044 232.281 444.044ZM232.281 473.456C348.447 473.456 442.618 379.285 442.618 263.119C442.618 146.953 348.447 52.7823 232.281 52.7823C116.115 52.7823 21.9442 146.953 21.9442 263.119C21.9442 302.255 32.6325 338.894 51.2493 370.277L30.0742 412.628C15.4072 441.962 36.738 476.475 69.5342 476.475H86.0162C105.677 476.475 122.334 463.614 128.034 445.846C158.762 463.415 194.349 473.456 232.281 473.456ZM100.722 427.244C89.6796 418.381 79.5507 408.427 70.4988 397.545L56.3808 425.781C51.4919 435.559 58.6021 447.064 69.5342 447.064H86.0162C94.138 447.064 100.722 440.48 100.722 432.358V427.244ZM378.547 476.475C358.886 476.475 342.228 463.614 336.529 445.846C346.133 440.355 355.263 434.129 363.841 427.243V432.358C363.841 440.48 370.425 447.064 378.547 447.064H395.029C405.961 447.064 413.071 435.559 408.182 425.781L394.064 397.545C401.171 389.001 407.614 379.885 413.313 370.277L434.489 412.628C449.156 441.962 427.825 476.475 395.029 476.475H378.547Z" fill="#FC7309"/>
<ellipse cx="151.5" cy="294" rx="17" ry="12.5" fill="#FC7309"/>
<ellipse cx="292.5" cy="293.5" rx="17.5" ry="12.5" fill="#FC7309"/>
<path d="M195 321.404C201.301 316.906 204.407 316.031 208.151 321.404C216.034 329.774 221.154 327.898 230.187 321.404C239.766 315.532 245.042 315.532 254 321.404" stroke="#FC7309" stroke-width="10" stroke-linecap="round"/>
</svg>
