<svg width="465" height="477" viewBox="0 0 465 477" fill="none" xmlns="http://www.w3.org/2000/svg">
<path fill-rule="evenodd" clip-rule="evenodd" d="M403.763 113.361C409.407 119.817 417.588 123.489 426.163 123.414C434.738 123.34 442.854 119.526 448.385 112.973C458.464 101.029 464.566 85.5327 464.566 68.6877C464.566 30.7526 433.813 8.96454e-05 395.878 8.96454e-05C374.778 8.96454e-05 355.879 9.55003 343.325 24.4575C337.797 31.0221 335.412 39.674 336.795 48.1441C338.179 56.6143 343.193 64.0576 350.522 68.5221C370.487 80.6822 388.444 95.8355 403.763 113.361ZM114.042 68.5209C121.372 64.0564 126.386 56.6128 127.77 48.1424C129.153 39.672 126.767 31.0199 121.239 24.4553C108.685 9.54907 89.787 0 68.6876 0C30.7525 0 0 30.7525 0 68.6876C0 85.5312 6.10042 101.026 16.1784 112.969C21.7089 119.524 29.8246 123.338 38.4001 123.413C46.9756 123.487 55.1567 119.816 60.8008 113.359C76.1203 95.834 94.0773 80.6809 114.042 68.5209ZM404.928 72.6375C400.256 68.4 395.427 64.332 390.451 60.4433C382.595 54.3036 374.372 48.6108 365.822 43.403C373.027 34.8477 383.818 29.4119 395.878 29.4119C396.626 29.4119 397.369 29.4328 398.107 29.4741C415.759 30.4617 430.298 43.1058 434.152 59.8342C434.807 62.6796 435.154 65.6432 435.154 68.6877C435.154 78.3336 431.677 87.1673 425.907 94.0037C419.333 86.4823 412.327 79.3473 404.928 72.6375ZM74.1132 60.4422C69.1376 64.3306 64.3089 68.3983 59.6367 72.6355C52.2379 79.3454 45.2318 86.4804 38.6569 94.0019C32.8884 87.1657 29.4118 78.3327 29.4118 68.6876C29.4118 65.6418 29.7585 62.6769 30.4146 59.8303C34.2696 43.1048 48.8062 30.4631 66.4552 29.4741C67.1941 29.4327 67.9384 29.4118 68.6876 29.4118C80.7474 29.4118 91.5376 34.8471 98.7423 43.4017C90.192 48.6096 81.9695 54.3024 74.1132 60.4422ZM413.206 263.119C413.206 363.041 332.203 444.044 232.281 444.044C132.359 444.044 51.3559 363.041 51.3559 263.119C51.3559 163.197 132.359 82.194 232.281 82.194C332.203 82.194 413.206 163.197 413.206 263.119ZM442.618 263.119C442.618 379.285 348.447 473.456 232.281 473.456C194.349 473.456 158.762 463.415 128.034 445.846C122.334 463.614 105.677 476.475 86.0162 476.475H69.5342C36.738 476.475 15.4072 441.962 30.0742 412.628L51.2493 370.277C32.6325 338.894 21.9442 302.255 21.9442 263.119C21.9442 146.953 116.115 52.7823 232.281 52.7823C348.447 52.7823 442.618 146.953 442.618 263.119ZM70.4988 397.545C79.5507 408.427 89.6796 418.381 100.722 427.244V432.358C100.722 440.48 94.138 447.064 86.0162 447.064H69.5342C58.6021 447.064 51.4919 435.559 56.3808 425.781L70.4988 397.545ZM336.529 445.846C342.228 463.614 358.886 476.475 378.547 476.475H395.029C427.825 476.475 449.156 441.962 434.489 412.628L413.313 370.277C407.614 379.885 401.171 389.001 394.064 397.545L408.182 425.781C413.071 435.559 405.961 447.064 395.029 447.064H378.547C370.425 447.064 363.841 440.48 363.841 432.358V427.243C355.263 434.129 346.133 440.355 336.529 445.846ZM185.936 321.937C183.925 319.303 180.159 318.799 177.526 320.811C174.892 322.822 174.388 326.587 176.4 329.221C181.085 335.355 189.801 342.953 200.975 345.22C212.754 347.61 225.907 343.809 238.17 329.48C240.325 326.962 240.031 323.175 237.513 321.02C234.995 318.866 231.208 319.16 229.053 321.677C219.147 333.253 210.2 334.848 203.361 333.46C195.915 331.949 189.494 326.595 185.936 321.937ZM170.838 301.741C170.838 306.568 165.502 310.481 158.919 310.481C152.336 310.481 147 306.568 147 301.741C147 296.913 152.336 293 158.919 293C165.502 293 170.838 296.913 170.838 301.741ZM255.861 310.481C262.444 310.481 267.78 306.568 267.78 301.741C267.78 296.913 262.444 293 255.861 293C249.278 293 243.942 296.913 243.942 301.741C243.942 306.568 249.278 310.481 255.861 310.481Z" fill="#FC7309"/>
</svg>
